<!--
  - Copyright 2022 Russian Post
  -
  - This source code is Russian Post Confidential Proprietary.
  - This software is protected by copyright. All rights and titles are reserved.
  - You shall not use, copy, distribute, modify, decompile, disassemble or reverse engineer the software.
  - Otherwise this violation would be treated by law and would be subject to legal prosecution.
  - Legal use of the software provides receipt of a license from the right holder only.
  -->
<svg width="760" height="759" viewBox="0 0 760 759" fill="none" xmlns="http://www.w3.org/2000/svg">
    <path d="M29.8721 759H729.231C745.726 759 759.103 745.625 759.103 729.133V29.8673C759.103 13.3753 745.726 0 729.231 0H29.8721C13.3775 0 0 13.3753 0 29.8673V729.133C0 745.625 13.3775 759 29.8721 759Z" fill="#1937FF"/>
    <path d="M239.849 434.875C231.685 419.719 220.126 412.02 205.505 412.02C191.627 412.02 180.587 419.756 172.702 435.023C164.946 450.013 161.013 469.937 161.013 494.22C161.013 519.394 164.779 539.707 172.201 554.604C179.752 569.797 190.959 577.496 205.505 577.496C220.274 577.496 231.964 569.426 240.257 553.528C247.994 538.631 251.928 518.596 251.928 493.997C251.928 469.695 247.864 449.809 239.849 434.875ZM220.479 536.164C217.027 546.59 211.981 551.877 205.468 551.877C199.216 551.877 194.299 546.516 190.848 535.941C187.267 524.941 185.448 510.99 185.448 494.443C185.448 477.487 187.23 463.536 190.755 452.944C194.132 442.796 199.067 437.658 205.468 437.658C212.723 437.658 217.881 442.722 221.258 453.148C224.319 462.572 225.878 476.318 225.878 493.997C225.878 511.101 224.059 525.274 220.479 536.164ZM293.934 321.769C302.636 306.742 307.052 286.596 307.052 261.867C307.052 237.417 302.488 217.4 293.489 202.374C284.305 187.032 271.28 179.259 254.804 179.259C239.181 179.259 226.75 187.088 217.862 202.522C209.161 217.586 204.745 237.64 204.745 262.09C204.745 287.394 208.975 307.837 217.306 322.845C225.822 338.224 238.457 346.015 254.822 346.015C271.447 345.997 284.62 337.834 293.934 321.769ZM271.28 303.737C267.457 314.052 262.095 319.079 254.859 319.079C247.939 319.079 242.706 313.996 238.884 303.533C234.895 292.607 232.873 278.73 232.873 262.294C232.873 245.431 234.858 231.573 238.791 221.073C242.539 211.037 247.79 206.158 254.878 206.158C262.819 206.158 268.478 211.093 272.17 221.278C275.584 230.627 277.31 244.299 277.31 261.867C277.31 278.842 275.287 292.94 271.28 303.737ZM96.7413 416.083H69.5596V574.268H95.6095C95.6095 574.268 95.6095 532.713 95.6095 528.28C100.656 532.713 106.148 535.348 112.178 535.348C120.843 535.348 128.061 530.766 133.645 521.731C139.88 511.584 143.052 496.539 143.052 477.023C143.052 463.444 140.51 451.274 135.519 440.886C127.634 424.431 114.59 416.083 96.7413 416.083ZM112.791 502.382C110.694 506.445 108.226 508.486 105.499 508.486C102.846 508.486 100.619 506.723 98.6895 503.087C96.6485 499.229 95.6095 493.608 95.6095 486.336C95.6095 486.336 95.6095 442.073 95.6095 439.68C96.1476 439.68 96.6856 439.68 96.6856 439.68C102.753 439.68 107.373 443.019 110.824 449.901C114.368 456.988 116.167 468.323 116.167 483.609C116.167 491.716 115.036 498.023 112.791 502.382ZM99.0606 209.813H135.389C135.389 213.505 135.389 342.75 135.389 342.75H164.723V183.303H69.7266V342.75H99.0606C99.0606 342.75 99.0606 213.505 99.0606 209.813ZM610.448 264.928C613.64 264.928 644.087 264.947 647.074 264.947C647.427 268.193 655.312 342.75 655.312 342.75L684.869 342.732L671.324 226.175C671.343 210.889 666.612 199.369 657.316 192.097C649.913 186.253 639.764 183.285 627.166 183.285H583.693L578.294 342.732H607.628C607.61 342.75 610.318 268.416 610.448 264.928ZM611.673 209.813C614.363 209.813 622.286 209.813 622.286 209.813C629.837 209.813 635.051 212.076 638.205 216.751C640.729 220.628 642.528 228.141 643.679 238.437H610.949C611.042 235.191 611.599 212.892 611.673 209.813ZM558.905 410.388C558.905 410.388 504.338 467.358 500.274 471.588C500.274 465.948 500.274 415.823 500.274 415.823H474.632V574.361H500.274C500.274 574.361 500.274 510.248 500.274 509.246C500.924 508.56 533.746 473.795 537.438 469.881C537.642 475.595 541.149 574.361 541.149 574.361H567.273L560.946 408.236L558.905 410.388ZM491.331 342.75H520.665C520.665 342.75 520.665 213.505 520.665 209.813C523.894 209.813 545.398 209.813 545.398 209.813V183.303H467.007V209.813C467.007 209.813 488.103 209.813 491.331 209.813C491.331 213.505 491.331 342.75 491.331 342.75ZM683.273 408.236L681.214 410.388C681.214 410.388 626.646 467.358 622.583 471.588C622.583 465.948 622.583 415.823 622.583 415.823H596.941V574.361H622.583C622.583 574.361 622.583 510.248 622.583 509.246C623.232 508.56 656.054 473.795 659.747 469.881C659.951 475.595 663.457 574.361 663.457 574.361H689.582L683.273 408.236ZM402.587 265.745C402.587 269.362 402.587 342.75 402.587 342.75H431.921V183.303H402.587C402.587 183.303 402.587 235.284 402.587 238.827C399.563 238.827 386.612 238.827 386.612 238.827C380.025 238.827 375.108 237.324 372.01 234.375C369.765 232.278 368.67 229.477 368.67 225.823V183.303H339.336V228.828C339.336 239.309 343.492 248.177 351.656 255.208C359.727 262.183 369.653 265.707 381.138 265.707C381.138 265.745 399.377 265.745 402.587 265.745ZM312.247 535.162C303.898 524.996 299.667 511.639 299.667 495.463C299.667 478.878 303.694 465.521 311.653 455.782C320.318 445.097 333.102 439.698 349.652 439.698H350.914V412.02H349.652C323.862 412.02 303.935 420.09 290.465 436.025C278.219 450.421 272.003 470.493 272.003 495.686C272.003 520.025 278.757 540.023 292.042 555.16C306.031 571.059 325.55 579.128 350.042 579.128H351.303V551.469H350.042C333.9 551.45 321.172 545.978 312.247 535.162ZM410.528 535.162C402.179 524.978 397.948 511.621 397.948 495.463C397.948 478.878 401.975 465.521 409.934 455.782C418.599 445.097 431.383 439.698 447.933 439.698H449.195V412.02H447.933C422.143 412.02 402.216 420.09 388.746 436.025C376.5 450.421 370.284 470.493 370.284 495.686C370.284 520.025 377.038 540.023 390.323 555.16C404.312 571.059 423.831 579.128 448.323 579.128H449.584V551.469H448.323C432.181 551.45 419.453 545.978 410.528 535.162Z" fill="white"/>
</svg>
